<mxfile host="app.diagrams.net" agent="Mozilla/5.0 (Macintosh; Intel Mac OS X 10_15_7) AppleWebKit/537.36 (KHTML, like Gecko) Chrome/128.0.0.0 Safari/537.36" version="24.7.8">
  <diagram name="Page-1" id="N1Gr0jE783VEbjLctg2Y">
    <mxGraphModel dx="1434" dy="795" grid="1" gridSize="10" guides="1" tooltips="1" connect="1" arrows="1" fold="1" page="1" pageScale="1" pageWidth="850" pageHeight="1100" math="0" shadow="0">
      <root>
        <mxCell id="0" />
        <mxCell id="1" parent="0" />
        <mxCell id="_hhTd0v3zeSMzjlf9Ebb-1" value="" style="shape=cylinder3;whiteSpace=wrap;html=1;boundedLbl=1;backgroundOutline=1;size=15;" vertex="1" parent="1">
          <mxGeometry x="690" y="200" width="60" height="80" as="geometry" />
        </mxCell>
        <mxCell id="_hhTd0v3zeSMzjlf9Ebb-8" style="edgeStyle=orthogonalEdgeStyle;rounded=0;orthogonalLoop=1;jettySize=auto;html=1;" edge="1" parent="1" source="_hhTd0v3zeSMzjlf9Ebb-2" target="_hhTd0v3zeSMzjlf9Ebb-3">
          <mxGeometry relative="1" as="geometry" />
        </mxCell>
        <mxCell id="_hhTd0v3zeSMzjlf9Ebb-2" value="" style="whiteSpace=wrap;html=1;aspect=fixed;" vertex="1" parent="1">
          <mxGeometry x="50" y="200" width="80" height="80" as="geometry" />
        </mxCell>
        <mxCell id="_hhTd0v3zeSMzjlf9Ebb-3" value="" style="rounded=1;whiteSpace=wrap;html=1;" vertex="1" parent="1">
          <mxGeometry x="365" y="210" width="120" height="60" as="geometry" />
        </mxCell>
        <mxCell id="_hhTd0v3zeSMzjlf9Ebb-4" value="" style="shape=cylinder3;whiteSpace=wrap;html=1;boundedLbl=1;backgroundOutline=1;size=15;" vertex="1" parent="1">
          <mxGeometry x="250" y="50" width="60" height="80" as="geometry" />
        </mxCell>
        <mxCell id="_hhTd0v3zeSMzjlf9Ebb-5" value="" style="shape=cylinder3;whiteSpace=wrap;html=1;boundedLbl=1;backgroundOutline=1;size=15;" vertex="1" parent="1">
          <mxGeometry x="310" y="520" width="60" height="80" as="geometry" />
        </mxCell>
        <mxCell id="_hhTd0v3zeSMzjlf9Ebb-10" style="edgeStyle=orthogonalEdgeStyle;rounded=0;orthogonalLoop=1;jettySize=auto;html=1;exitX=1;exitY=0.5;exitDx=0;exitDy=0;entryX=0;entryY=0.5;entryDx=0;entryDy=0;entryPerimeter=0;" edge="1" parent="1" source="_hhTd0v3zeSMzjlf9Ebb-3" target="_hhTd0v3zeSMzjlf9Ebb-1">
          <mxGeometry relative="1" as="geometry" />
        </mxCell>
        <mxCell id="_hhTd0v3zeSMzjlf9Ebb-11" value="" style="endArrow=classic;html=1;rounded=0;exitX=0.5;exitY=0;exitDx=0;exitDy=0;entryX=1;entryY=0.5;entryDx=0;entryDy=0;entryPerimeter=0;" edge="1" parent="1" source="_hhTd0v3zeSMzjlf9Ebb-3" target="_hhTd0v3zeSMzjlf9Ebb-4">
          <mxGeometry width="50" height="50" relative="1" as="geometry">
            <mxPoint x="410" y="160" as="sourcePoint" />
            <mxPoint x="460" y="110" as="targetPoint" />
            <Array as="points" />
          </mxGeometry>
        </mxCell>
        <mxCell id="_hhTd0v3zeSMzjlf9Ebb-12" value="" style="endArrow=classic;html=1;rounded=0;entryX=0.617;entryY=0.038;entryDx=0;entryDy=0;entryPerimeter=0;" edge="1" parent="1" source="_hhTd0v3zeSMzjlf9Ebb-3" target="_hhTd0v3zeSMzjlf9Ebb-5">
          <mxGeometry width="50" height="50" relative="1" as="geometry">
            <mxPoint x="400" y="430" as="sourcePoint" />
            <mxPoint x="350" y="510" as="targetPoint" />
          </mxGeometry>
        </mxCell>
      </root>
    </mxGraphModel>
  </diagram>
</mxfile>
